<?xml version="1.0" encoding="iso-8859-1"?>
<!-- Generator: Adobe Illustrator 19.0.0, SVG Export Plug-In . SVG Version: 6.00 Build 0)  -->
<svg version="1.1" id="Layer_1" xmlns="http://www.w3.org/2000/svg" xmlns:xlink="http://www.w3.org/1999/xlink" x="0px" y="0px"
	 viewBox="0 0 505 505" style="enable-background:new 0 0 505 505;" xml:space="preserve">
<circle style="fill:#3500d3;" cx="252.5" cy="252.5" r="252.5"/>
<polygon style="fill:#2B3B4E;" points="316.5,410.8 305.1,363.2 199.9,363.2 188.5,410.8 "/>
<path style="fill:#324A5E;" d="M405.6,113H99.4c-8,0-14.4,6.5-14.4,14.4v196.5h335.1V127.4C420.1,119.5,413.6,113,405.6,113z"/>
<path style="fill:#E6E9EE;" d="M84.9,320.9v34.6c0,8,6.5,14.4,14.4,14.4h306.3c8,0,14.4-6.5,14.4-14.4v-34.6H84.9z"/>
<rect x="114.3" y="142.4" style="fill:#54C0EB;" width="276.4" height="146.5"/>
<path style="fill:#E6E9EE;" d="M320.1,401.1H184.9c-7.3,0-13.2,5.9-13.2,13.2l0,0c0,7.3,5.9,13.2,13.2,13.2H320
	c7.3,0,13.2-5.9,13.2-13.2l0,0C333.3,407,327.4,401.1,320.1,401.1z"/>
<g>
	<circle style="fill:#ACB3BA;" cx="381.5" cy="343.9" r="9.1"/>
	<circle style="fill:#ACB3BA;" cx="351.5" cy="343.9" r="9.1"/>
</g>
<circle style="fill:#E6E9EE;" cx="321.4" cy="343.9" r="9.1"/>
<path style="fill:#FFFFFF;" d="M331,252.8V276l-16.8,2.8c-0.8,3.5-2,6.9-3.3,10.1h-42.8c8.1-5.1,13.5-14.2,13.5-24.5
	c0-16-13-29-29-29s-29,13-29,29c0,10.3,5.4,19.4,13.5,24.5h-42.8c-1.4-3.2-2.5-6.6-3.3-10.1l-16.9-2.8v-23.2L191,250
	c1.6-6.8,4.3-13.2,7.9-19l-9.9-13.9l16.4-16.4l13.9,10c5.8-3.6,12.2-6.3,19-7.9l2.8-16.9h23.2l2.8,16.9c6.8,1.6,13.2,4.3,19,7.9
	l13.9-10l16.4,16.4l-9.9,13.9c3.6,5.8,6.3,12.2,7.9,19L331,252.8z"/>
<g>
</g>
<g>
</g>
<g>
</g>
<g>
</g>
<g>
</g>
<g>
</g>
<g>
</g>
<g>
</g>
<g>
</g>
<g>
</g>
<g>
</g>
<g>
</g>
<g>
</g>
<g>
</g>
<g>
</g>
</svg>
