<?xml version="1.0" encoding="iso-8859-1"?>
<!-- Generator: Adobe Illustrator 19.0.0, SVG Export Plug-In . SVG Version: 6.00 Build 0)  -->
<svg version="1.1" id="Layer_1" xmlns="http://www.w3.org/2000/svg" xmlns:xlink="http://www.w3.org/1999/xlink" x="0px" y="0px"
	 viewBox="0 0 505 505" style="enable-background:new 0 0 505 505;" xml:space="preserve">
<circle style="fill:#3500d3;" cx="252.5" cy="252.5" r="252.5"/>
<path style="fill:#FF7058;" d="M502.9,220.2h-23.7c-37.6,0-68.2,30.6-68.2,68.2v80.3c0,48.5-39.5,87.9-87.9,87.9
	c-48.5,0-88-39.5-88-87.9v-49.2h19.7v49.2c0,37.6,30.6,68.2,68.3,68.2c37.6,0,68.2-30.6,68.2-68.2v-80.3c0-48.5,39.5-87.9,87.9-87.9
	h20.3C501,206.9,502.1,213.5,502.9,220.2z"/>
<path style="fill:#2C9984;" d="M280,338.5h-70.1V395c0,2.3,1.9,4.2,4.2,4.2h61.7c2.3,0,4.2-1.9,4.2-4.2V338.5z"/>
<g>
	<path style="fill:#FFFFFF;" d="M327.8,176.3h-40V77.6c0-11.1,9-20,20-20l0,0c11.1,0,20,9,20,20V176.3z"/>
	<path style="fill:#FFFFFF;" d="M202.2,176.3h-40V77.6c0-11.1,9-20,20-20l0,0c11.1,0,20,9,20,20V176.3z"/>
</g>
<path style="fill:#324A5E;" d="M353.2,215H136.8c-13.2,0-23.9-10.7-23.9-23.9l0,0c0-13.2,10.7-23.9,23.9-23.9h216.5
	c13.2,0,23.9,10.7,23.9,23.9l0,0C377.1,204.3,366.4,215,353.2,215z"/>
<path style="fill:#2B3B4E;" d="M237.2,360.6h15.6c42.6,0,80.1-30,87.4-72c0.3-1.5,0.5-3,0.7-4.5l11.2-69.1H137.9l11.2,69.1
	c0.2,1.5,0.4,3,0.7,4.5C157.1,330.6,194.6,360.6,237.2,360.6z"/>
<circle style="fill:#E6E9EE;" cx="245" cy="294.7" r="25.3"/>
<g>
</g>
<g>
</g>
<g>
</g>
<g>
</g>
<g>
</g>
<g>
</g>
<g>
</g>
<g>
</g>
<g>
</g>
<g>
</g>
<g>
</g>
<g>
</g>
<g>
</g>
<g>
</g>
<g>
</g>
</svg>
