<?xml version="1.0" encoding="iso-8859-1"?>
<!-- Generator: Adobe Illustrator 19.0.0, SVG Export Plug-In . SVG Version: 6.00 Build 0)  -->
<svg version="1.1" id="Layer_1" xmlns="http://www.w3.org/2000/svg" xmlns:xlink="http://www.w3.org/1999/xlink" x="0px" y="0px"
	 viewBox="0 0 512 512" style="enable-background:new 0 0 512 512;" xml:space="preserve">
<path style="fill:#3500d3;" d="M256,512C114.839,512,0,397.161,0,256S114.839,0,256,0s256,114.839,256,256S397.161,512,256,512z"/>
<path style="fill:#3500d3;" d="M512,256C512,114.839,397.161,0,256,0v512C397.161,512,512,397.161,512,256z"/>
<path style="fill:#FFFFFF;" d="M362.273,149.727c-6.523-6.523-17.091-6.523-23.614,0L149.727,338.659
	c-6.523,6.517-6.523,17.096,0,23.614c3.262,3.262,7.535,4.893,11.806,4.893c4.272,0,8.546-1.631,11.806-4.893l188.932-188.932
	C368.796,166.822,368.796,156.245,362.273,149.727z"/>
<g>
	<path style="fill:#FFEB99;" d="M338.659,149.727L256,232.386v47.228l106.273-106.273c6.523-6.517,6.523-17.096,0-23.614
		C355.75,143.204,345.182,143.204,338.659,149.727z"/>
	<path style="fill:#FFEB99;" d="M389.594,328.364H278.266c-9.225,0-16.699,7.475-16.699,16.699s7.475,16.699,16.699,16.699h111.329
		c9.225,0,16.699-7.475,16.699-16.699S398.819,328.364,389.594,328.364z"/>
</g>
<path style="fill:#FFFFFF;" d="M161.371,222.601c0,9.225,7.475,16.699,16.699,16.699c9.225,0,16.699-7.475,16.699-16.699v-38.965
	h38.965c9.225,0,16.699-7.475,16.699-16.699s-7.475-16.699-16.699-16.699h-38.965v-38.965c0-9.225-7.475-16.699-16.699-16.699
	c-9.225,0-16.699,7.475-16.699,16.699v38.965h-38.965c-9.225,0-16.699,7.475-16.699,16.699s7.475,16.699,16.699,16.699h38.965
	V222.601z"/>
<g>
</g>
<g>
</g>
<g>
</g>
<g>
</g>
<g>
</g>
<g>
</g>
<g>
</g>
<g>
</g>
<g>
</g>
<g>
</g>
<g>
</g>
<g>
</g>
<g>
</g>
<g>
</g>
<g>
</g>
</svg>
